<svg width="40" height="40" viewBox="0 0 40 40" fill="none" xmlns="http://www.w3.org/2000/svg">
<path d="M6.66659 5C4.81659 5 3.33325 6.48333 3.33325 8.33333V25C3.33325 25.8841 3.68444 26.7319 4.30956 27.357C4.93468 27.9821 5.78253 28.3333 6.66659 28.3333H19.9999V36.6667L24.9999 31.6667L29.9999 36.6667V28.3333H33.3333C34.2173 28.3333 35.0652 27.9821 35.6903 27.357C36.3154 26.7319 36.6666 25.8841 36.6666 25V8.33333C36.6666 7.44928 36.3154 6.60143 35.6903 5.97631C35.0652 5.35119 34.2173 5 33.3333 5H6.66659ZM19.9999 8.33333L24.9999 11.6667L29.9999 8.33333V14.1667L34.9999 16.6667L29.9999 19.1667V25L24.9999 21.6667L19.9999 25V19.1667L14.9999 16.6667L19.9999 14.1667V8.33333ZM6.66659 8.33333H14.9999V11.6667H6.66659V8.33333ZM6.66659 15H11.6666V18.3333H6.66659V15ZM6.66659 21.6667H14.9999V25H6.66659V21.6667Z" fill="url(#paint0_linear_5103_435)"/>
<defs>
<linearGradient id="paint0_linear_5103_435" x1="3.33325" y1="20.8333" x2="36.6666" y2="20.8333" gradientUnits="userSpaceOnUse">
<stop stop-color="#1A2856"/>
<stop offset="1" stop-color="#334EA9"/>
</linearGradient>
</defs>
</svg>
